<?xml version="1.0" encoding="UTF-8" standalone="no"?>
<svg width="14px" height="20px" viewBox="0 0 14 20" version="1.1" xmlns="http://www.w3.org/2000/svg" xmlns:xlink="http://www.w3.org/1999/xlink">
    <!-- Generator: sketchtool 3.7.2 (28276) - http://www.bohemiancoding.com/sketch -->
    <title>9A4B9740-57ED-4978-AEA3-E5256C463B58</title>
    <desc>Created with sketchtool.</desc>
    <defs></defs>
    <g id="Account" stroke="none" stroke-width="1" fill="none" fill-rule="evenodd">
        <g id="Account---New-Styling" transform="translate(-30.000000, -187.000000)" fill="#005EA5">
            <g id="navigation" transform="translate(0.000000, 170.000000)">
                <g id="icons" transform="translate(25.000000, 17.000000)">
                    <path d="M11.9321799,8.13252595 C14.1782007,8.13252595 15.9986159,6.31176471 15.9986159,4.06608997 C15.9986159,1.82041522 14.1778547,8.8817842e-16 11.9321799,8.8817842e-16 C9.68650519,8.8817842e-16 7.8650519,1.82076125 7.8650519,4.06643599 C7.8650519,6.31211073 9.68650519,8.13252595 11.9321799,8.13252595 L11.9321799,8.13252595 Z M13.6570934,8.40968858 L10.2065744,8.40968858 C7.33564014,8.40968858 5,10.7456747 5,13.616609 L5,17.8363322 L5.01072664,17.9024221 L5.30138408,17.9934256 C8.04117647,18.849481 10.4214533,19.1349481 12.3806228,19.1349481 C16.2072664,19.1349481 18.4252595,18.0439446 18.5619377,17.9743945 L18.833564,17.8370242 L18.8626298,17.8370242 L18.8626298,13.616609 C18.8636678,10.7456747 16.5280277,8.40968858 13.6570934,8.40968858 L13.6570934,8.40968858 Z" id="personal-details-icon"></path>
                </g>
            </g>
        </g>
    </g>
</svg>