<?xml version="1.0" encoding="UTF-8" standalone="no"?>
<svg width="23px" height="18px" viewBox="0 0 23 18" version="1.1" xmlns="http://www.w3.org/2000/svg" xmlns:xlink="http://www.w3.org/1999/xlink">
    <!-- Generator: sketchtool 3.7.2 (28276) - http://www.bohemiancoding.com/sketch -->
    <title>AA6BBDE3-F0BD-4C03-BED3-70CC539B2ACE</title>
    <desc>Created with sketchtool.</desc>
    <defs></defs>
    <g id="Account" stroke="none" stroke-width="1" fill="none" fill-rule="evenodd">
        <g id="Account---New-Styling" transform="translate(-25.000000, -236.000000)" fill="#005EA5">
            <g id="navigation" transform="translate(0.000000, 170.000000)">
                <g id="icons" transform="translate(25.000000, 17.000000)">
                    <g id="address-icon" transform="translate(0.000000, 49.000000)">
                        <path d="M11.3062011,3.66549457 L3.27648913,10.2851413 C3.27648913,10.2944837 3.2741413,10.3082283 3.26944565,10.326962 C3.26484783,10.3455489 3.26240217,10.3590489 3.26240217,10.3686359 L3.26240217,17.0717283 C3.26240217,17.31375 3.35088587,17.5234891 3.52780435,17.7001141 C3.70467391,17.876837 3.91411957,17.9657609 4.15619022,17.9657609 L9.51852717,17.9657609 L9.51852717,12.6031304 L13.0939239,12.6031304 L13.0939239,17.9659565 L18.456212,17.9659565 C18.6982337,17.9659565 18.9079728,17.8772283 19.0845978,17.7001141 C19.2615163,17.5236848 19.3502935,17.3137989 19.3502935,17.0717283 L19.3502935,10.3686359 C19.3502935,10.331462 19.3452065,10.3033859 19.3362065,10.2851413 L11.3062011,3.66549457 L11.3062011,3.66549457 Z" id="Shape"></path>
                        <path d="M22.4081413,8.7768587 L19.35,6.23523913 L19.35,0.537505435 C19.35,0.40725 19.3081304,0.300130435 19.2240978,0.216293478 C19.14075,0.132554348 19.0336304,0.0906847826 18.9030815,0.0906847826 L16.2218641,0.0906847826 C16.091462,0.0906847826 15.9843913,0.132554348 15.9005054,0.216293478 C15.8168152,0.300130435 15.7749946,0.407298913 15.7749946,0.537505435 L15.7749946,3.2606413 L12.3676141,0.411701087 C12.0700272,0.169630435 11.7161902,0.0486195652 11.3064946,0.0486195652 C10.8968478,0.0486195652 10.5430598,0.169630435 10.2451793,0.411701087 L0.204065217,8.7768587 C0.110983696,8.85120652 0.0599673913,8.95128261 0.0504782609,9.07698913 C0.0410380435,9.20259783 0.0735652174,9.31230978 0.148157609,9.40534239 L1.01396739,10.4387772 C1.08855978,10.5225163 1.18619022,10.5737283 1.30725,10.592462 C1.4190163,10.6018533 1.53078261,10.5691793 1.64254891,10.4947337 L11.3062011,2.43670109 L20.9699511,10.4946848 C21.0445924,10.5596413 21.1421739,10.5920707 21.2632337,10.5920707 L21.3052011,10.5920707 C21.4260652,10.5736793 21.5235,10.522125 21.5984837,10.4385815 L22.4643913,9.40529348 C22.538837,9.31206522 22.571462,9.20254891 22.5617772,9.07679348 C22.5522391,8.95142935 22.5010272,8.85135326 22.4081413,8.7768587 L22.4081413,8.7768587 Z" id="Shape"></path>
                    </g>
                </g>
            </g>
        </g>
    </g>
</svg>