<?xml version="1.0" encoding="UTF-8" standalone="no"?>
<svg width="20px" height="20px" viewBox="0 0 20 20" version="1.1" xmlns="http://www.w3.org/2000/svg" xmlns:xlink="http://www.w3.org/1999/xlink">
    <!-- Generator: sketchtool 3.7.2 (28276) - http://www.bohemiancoding.com/sketch -->
    <title>3F9FF2ED-D932-4E8A-97BE-FA62EA5A5998</title>
    <desc>Created with sketchtool.</desc>
    <defs></defs>
    <g id="Account" stroke="none" stroke-width="1" fill="none" fill-rule="evenodd">
        <g id="Account---New-Styling" transform="translate(-27.000000, -286.000000)" fill="#005EA5">
            <g id="navigation" transform="translate(0.000000, 170.000000)">
                <g id="icons" transform="translate(25.000000, 17.000000)">
                    <path d="M21.9941176,114.776471 C22.0365052,115.101211 21.9375433,115.383564 21.6976471,115.623529 L18.8811765,118.41872 C18.7541176,118.559896 18.5882699,118.68 18.383564,118.77872 C18.1788581,118.877578 17.9777163,118.941107 17.7801384,118.969308 C17.7660208,118.969308 17.723564,118.972941 17.6529412,118.98 C17.5824567,118.987024 17.490692,118.990623 17.3777509,118.990623 C17.1094464,118.990623 16.6752941,118.94474 16.0752941,118.852941 C15.4752941,118.761142 14.7412111,118.535225 13.873045,118.175294 C13.0046713,117.815294 12.02,117.275225 10.9188581,116.555294 C9.81771626,115.835398 8.64591696,114.847093 7.40356401,113.590588 C6.41532872,112.616471 5.59650519,111.684706 4.94709343,110.795329 C4.29768166,109.905882 3.77532872,109.083529 3.3800346,108.328235 C2.98470588,107.572941 2.68823529,106.888235 2.49058824,106.274118 C2.29294118,105.66 2.15882353,105.130588 2.08823529,104.685882 C2.01764706,104.241176 1.98941176,103.891765 2.00352941,103.637647 C2.01764706,103.383529 2.02470588,103.242353 2.02470588,103.214118 C2.05294118,103.016471 2.11647059,102.815294 2.21529412,102.610588 C2.31411765,102.405882 2.43411765,102.24 2.57529412,102.112941 L5.39176471,99.2964706 C5.58941176,99.0988235 5.81529412,99 6.06941176,99 C6.25294118,99 6.41529412,99.0529412 6.55647059,99.1588235 C6.69764706,99.2647059 6.81764706,99.3952941 6.91647059,99.5505882 L9.18235294,103.849412 C9.30941176,104.075294 9.34470588,104.322353 9.28823529,104.590588 C9.23176471,104.858824 9.11176471,105.084706 8.92823529,105.268235 L7.89058824,106.305882 C7.86235294,106.334118 7.83764706,106.38 7.81647059,106.443529 C7.79529412,106.507059 7.78470588,106.56 7.78470588,106.602353 C7.84117647,106.898824 7.96823529,107.237647 8.16588235,107.618824 C8.33529412,107.957647 8.59647059,108.370588 8.94941176,108.857647 C9.30235294,109.344706 9.80352941,109.905848 10.4529412,110.541142 C11.0882353,111.190623 11.6529412,111.69526 12.1470588,112.055329 C12.6410727,112.41519 13.0541522,112.68 13.385917,112.849412 C13.7176817,113.018824 13.9717993,113.121176 14.1482353,113.156367 L14.412872,113.209343 C14.4411073,113.209343 14.4870934,113.19872 14.5505536,113.177578 C14.614083,113.156367 14.6599654,113.131696 14.6882353,113.103426 L15.8952595,111.87519 C16.1495156,111.649343 16.4458478,111.536401 16.7847059,111.536401 C17.0247751,111.536401 17.2152595,111.57872 17.356436,111.66346 L17.3775779,111.66346 L21.4646021,114.077578 C21.7611765,114.261246 21.9376125,114.494118 21.9941176,114.776471 L21.9941176,114.776471 Z" id="contact-icon"></path>
                </g>
            </g>
        </g>
    </g>
</svg>