<?xml version="1.0" encoding="UTF-8" standalone="no"?>
<svg width="21px" height="22px" viewBox="0 0 21 22" version="1.1" xmlns="http://www.w3.org/2000/svg" xmlns:xlink="http://www.w3.org/1999/xlink">
    <!-- Generator: sketchtool 3.7.2 (28276) - http://www.bohemiancoding.com/sketch -->
    <title>62836784-0D03-4084-A565-3DC1B422BA10</title>
    <desc>Created with sketchtool.</desc>
    <defs></defs>
    <g id="Account" stroke="none" stroke-width="1" fill="none" fill-rule="evenodd">
        <g id="Account---New-Styling" transform="translate(-26.000000, -333.000000)" fill="#005EA5">
            <g id="navigation" transform="translate(0.000000, 170.000000)">
                <g id="icons" transform="translate(25.000000, 17.000000)">
                    <g id="benefits-icon" transform="translate(1.000000, 146.000000)">
                        <path d="M18.4715366,6.62133621 C17.6370539,5.85323276 16.6698125,5.25344828 15.6314504,4.81724138 C15.4963211,5.02112069 15.3422263,5.21314655 15.1667953,5.38857759 C14.934444,5.62090517 14.6736681,5.8200431 14.3891853,5.97887931 C14.6902629,6.07844828 14.9794871,6.19224138 15.2568815,6.32262931 C15.5389698,6.45538793 15.6480453,6.80150862 15.491556,7.07176724 L15.491556,7.07176724 C15.354056,7.3112069 15.0529784,7.40603448 14.804056,7.2875 C12.9122457,6.39375 10.7999849,6.56206897 9.87302155,6.70193966 C9.60039224,6.74224138 9.33961638,6.56918103 9.27563147,6.3012931 L9.27563147,6.29892241 C9.20211638,5.99547414 9.4060194,5.69439655 9.71420905,5.64698276 C9.88252802,5.62090517 10.0863836,5.59482759 10.3139935,5.57349138 C10.2452435,5.51422414 10.1788642,5.45258621 10.1148556,5.38857759 C9.78770043,5.06142241 9.52929526,4.67974138 9.34912284,4.25301724 C9.33015733,4.20797414 9.31119181,4.16056034 9.29459698,4.11551724 C9.01248491,4.16293103 8.73274353,4.22219828 8.46011422,4.29094828 C6.87175216,3.36637931 4.96571767,3.36400862 3.83252802,3.47543103 C3.33942457,3.52284483 3.04782974,4.04913793 3.2635625,4.49482759 L4.22369181,6.4625 C3.15688147,7.39181034 2.35084698,8.52974138 1.89804526,9.79806034 L0.726924569,9.79331897 C0.333390086,9.79094828 0.0133469828,10.1109914 0.0133469828,10.5045259 L0.0133469828,13.13125 C0.0133469828,13.3967435 0.160329741,13.6385539 0.395028017,13.7618534 L1.91464009,14.5536638 C2.54998491,16.3055797 3.86571767,17.8086207 5.6010625,18.8446121 L5.6010625,21.1702586 C5.6010625,21.6278017 5.97326078,22 6.43080388,22 L8.55968319,22 C8.88918534,22 9.18791595,21.8032328 9.32067457,21.5021552 L9.85407974,20.2765086 C10.3139935,20.3334052 10.7810431,20.3618772 11.2598987,20.3618772 C12.0138017,20.3618772 12.7463211,20.2907565 13.4504159,20.1556272 L13.4504159,21.1702586 C13.4504159,21.6278017 13.8226142,22 14.2801573,22 L16.3995539,22 C16.7053491,22 16.9874849,21.831681 17.1320733,21.5614224 C18.2605453,19.4420259 19.4861681,17.3155172 20.3917716,15.0965517 C20.8493147,13.9728685 21.0152629,12.7803879 20.9157177,11.6163793 C20.7544871,9.7387931 19.9010388,7.93469828 18.4715366,6.62133621 L18.4715366,6.62133621 Z M5.73619181,11.0331897 C5.14589009,11.0331897 4.66938147,10.5566573 4.66938147,9.96637931 C4.66938147,9.37607759 5.14589009,8.89956897 5.73619181,8.89956897 C6.32649353,8.89956897 6.80300216,9.37607759 6.80300216,9.96637931 C6.80297845,10.556681 6.32649353,11.0331897 5.73619181,11.0331897 L5.73619181,11.0331897 Z" id="Shape"></path>
                        <path d="M11.5894246,5.5237069 C11.9142091,5.65172414 12.2698125,5.72284483 12.6420108,5.72284483 C12.8245302,5.72284483 13.0023319,5.70625 13.1730216,5.67306034 C13.8984763,5.53793103 14.5267091,5.12780172 14.9462974,4.55646552 C15.2947888,4.08232759 15.5010388,3.49676724 15.5010388,2.86142241 C15.5034095,1.28017241 14.2208664,0 12.6419871,0 C11.0607371,0 9.78056466,1.28017241 9.78056466,2.86142241 C9.78056466,3.27155172 9.86590948,3.66034483 10.022375,4.01357759 C10.3234526,4.70107759 10.8900711,5.24633621 11.5894246,5.5237069 L11.5894246,5.5237069 Z" id="Shape"></path>
                    </g>
                </g>
            </g>
        </g>
    </g>
</svg>