<?xml version="1.0" encoding="UTF-8" standalone="no"?>
<svg width="24px" height="20px" viewBox="0 0 24 20" version="1.1" xmlns="http://www.w3.org/2000/svg" xmlns:xlink="http://www.w3.org/1999/xlink">
    <!-- Generator: sketchtool 3.7.2 (28276) - http://www.bohemiancoding.com/sketch -->
    <title>3E2DAE64-84B3-4A2A-AD64-225D46BD0605</title>
    <desc>Created with sketchtool.</desc>
    <defs></defs>
    <g id="Account" stroke="none" stroke-width="1" fill="none" fill-rule="evenodd">
        <g id="Account---New-Styling" transform="translate(-25.000000, -387.000000)" fill="#005EA5">
            <g id="navigation" transform="translate(0.000000, 170.000000)">
                <g id="icons" transform="translate(25.000000, 17.000000)">
                    <path d="M14.2220588,203.404118 C15.3117647,204.087353 16.0758824,205.243529 16.215,206.585588 C16.6594118,206.793235 17.1526471,206.912647 17.6755882,206.912647 C19.5847059,206.912647 21.1320588,205.365294 21.1320588,203.456471 C21.1320588,201.547353 19.5847059,200 17.6755882,200 C15.7847059,200.000588 14.2508824,201.520294 14.2220588,203.404118 L14.2220588,203.404118 Z M11.9576471,210.481176 C13.8667647,210.481176 15.4141176,208.933529 15.4141176,207.024706 C15.4141176,205.115882 13.8664706,203.568529 11.9576471,203.568529 C10.0488235,203.568529 8.50058824,205.116176 8.50058824,207.025 C8.50058824,208.933824 10.0488235,210.481176 11.9576471,210.481176 L11.9576471,210.481176 Z M13.4238235,210.716765 L10.4908824,210.716765 C8.05058824,210.716765 6.06529412,212.702353 6.06529412,215.142647 L6.06529412,218.729412 L6.07441176,218.785588 L6.32147059,218.862941 C8.65029412,219.590588 10.6735294,219.833235 12.3388235,219.833235 C15.5914706,219.833235 17.4767647,218.905882 17.5929412,218.846765 L17.8238235,218.73 L17.8485294,218.73 L17.8485294,215.142647 C17.8494118,212.702353 15.8641176,210.716765 13.4238235,210.716765 L13.4238235,210.716765 Z M19.1423529,207.148529 L16.2320588,207.148529 C16.2005882,208.312941 15.7035294,209.361471 14.9173529,210.115588 C17.0864706,210.760588 18.6735294,212.772059 18.6735294,215.147941 L18.6735294,216.253235 C21.5470588,216.147941 23.2029412,215.333529 23.3120588,215.278824 L23.5429412,215.161765 L23.5676471,215.161765 L23.5676471,211.573824 C23.5676471,209.133824 21.5823529,207.148529 19.1423529,207.148529 L19.1423529,207.148529 Z M5.89264706,206.913235 C6.56882353,206.913235 7.19794118,206.715882 7.73088235,206.379706 C7.90029412,205.274706 8.49264706,204.309118 9.33882353,203.651471 C9.34235294,203.586765 9.34852941,203.522647 9.34852941,203.457353 C9.34852941,201.548235 7.80088235,200.000882 5.89264706,200.000882 C3.98323529,200.000882 2.43617647,201.548235 2.43617647,203.457353 C2.43617647,205.365588 3.98323529,206.913235 5.89264706,206.913235 L5.89264706,206.913235 Z M8.99676471,210.115588 C8.21441176,209.365294 7.71911765,208.322353 7.68294118,207.165 C7.575,207.157059 7.46823529,207.148529 7.35823529,207.148529 L4.42558824,207.148529 C1.98529412,207.148529 0,209.133824 0,211.573824 L0,215.161176 L0.00911764706,215.216471 L0.256176471,215.294412 C2.12441176,215.877647 3.79176471,216.146471 5.24,216.231176 L5.24,215.147941 C5.24058824,212.772059 6.82705882,210.761176 8.99676471,210.115588 L8.99676471,210.115588 Z" id="relationships-icon"></path>
                </g>
            </g>
        </g>
    </g>
</svg>