<?xml version="1.0" encoding="UTF-8" standalone="no"?>
<svg width="22px" height="22px" viewBox="0 0 22 22" version="1.1" xmlns="http://www.w3.org/2000/svg" xmlns:xlink="http://www.w3.org/1999/xlink">
    <!-- Generator: Sketch 3.7.2 (28276) - http://www.bohemiancoding.com/sketch -->
    <title>Clear icon</title>
    <desc>Created with Sketch.</desc>
    <defs></defs>
    <g id="Searchlight" stroke="none" stroke-width="1" fill="none" fill-rule="evenodd">
        <g id="Management-check-confirmation" transform="translate(-549.000000, -51.000000)" fill="#999999">
            <g id="search" transform="translate(45.000000, 37.000000)">
                <g id="search-box">
                    <path d="M515,14 C508.9,14 504,18.9 504,25 C504,31.1 508.9,36 515,36 C521.1,36 526,31.1 526,25 C526,18.9 521.1,14 515,14 L515,14 Z M516.6,25.2 L520.35,28.95 C520.45,29.05 520.5,29.2 520.5,29.3 C520.5,29.4 520.45,29.55 520.35,29.65 L519.65,30.35 C519.55,30.45 519.4,30.5 519.3,30.5 C519.15,30.5 519.05,30.45 518.95,30.35 L515.2,26.6 C515.1,26.5 514.95,26.5 514.85,26.6 L511.1,30.35 C511,30.45 510.85,30.5 510.75,30.5 C510.6,30.5 510.5,30.45 510.4,30.35 L509.7,29.65 C509.6,29.55 509.55,29.4 509.55,29.3 C509.55,29.2 509.6,29.05 509.7,28.95 L513.45,25.2 C513.55,25.1 513.55,24.95 513.45,24.85 L509.7,21.1 C509.6,21 509.55,20.85 509.55,20.75 C509.55,20.65 509.6,20.5 509.7,20.4 L510.4,19.7 C510.5,19.6 510.65,19.55 510.75,19.55 C510.85,19.55 511,19.6 511.1,19.7 L514.85,23.45 C514.95,23.55 515.1,23.55 515.2,23.45 L518.95,19.7 C519.05,19.6 519.2,19.55 519.3,19.55 C519.45,19.55 519.55,19.6 519.65,19.7 L520.35,20.4 C520.45,20.5 520.5,20.65 520.5,20.75 C520.5,20.85 520.45,21 520.35,21.1 L516.6,24.85 C516.5,24.9 516.5,25.1 516.6,25.2 L516.6,25.2 Z" id="Clear-icon"></path>
                </g>
            </g>
        </g>
    </g>
</svg>