<?xml version="1.0" encoding="UTF-8" standalone="no"?>
<svg width="16px" height="15px" viewBox="0 0 16 15" version="1.1" xmlns="http://www.w3.org/2000/svg" xmlns:xlink="http://www.w3.org/1999/xlink">
    <!-- Generator: Sketch 39.1 (31720) - http://www.bohemiancoding.com/sketch -->
    <title>cross copy</title>
    <desc>Created with Sketch.</desc>
    <defs></defs>
    <g id="Symbols" stroke="none" stroke-width="1" fill="none" fill-rule="evenodd">
        <g id="Mobile/Top-bar-(expanded)" transform="translate(-288.000000, -50.000000)" fill="#ffffff">
            <g id="cross-copy" transform="translate(288.000000, 50.000000)">
                <path d="M13.8336309,0.605708883 C13.5154329,0.287510832 13.0911688,0.287510832 12.7729708,0.605708883 L1.10570888,12.2729708 C0.787510832,12.5911688 0.787510832,13.0154329 1.10570888,13.3336309 L2.16636906,14.3942911 C2.48456711,14.7124892 2.90883118,14.7124892 3.22702923,14.3942911 L14.8942911,2.72702923 C15.2124892,2.40883118 15.2124892,1.98456711 14.8942911,1.66636906 L13.8336309,0.605708883 L13.8336309,0.605708883" id="Shape"></path>
                <path d="M14.8942911,13.3336309 C15.2124892,13.0154329 15.2124892,12.5911688 14.8942911,12.2729708 L3.22702923,0.605708883 C2.90883118,0.287510832 2.48456711,0.287510832 2.16636906,0.605708883 L1.10570888,1.66636906 C0.787510832,1.98456711 0.787510832,2.40883118 1.10570888,2.72702923 L12.7729708,14.3942911 C13.0911688,14.7124892 13.5154329,14.7124892 13.8336309,14.3942911 L14.8942911,13.3336309 L14.8942911,13.3336309" id="Shape"></path>
            </g>
        </g>
    </g>
</svg>