<svg width="30" height="30" viewBox="0 0 30 30" version="1.1" xmlns="http://www.w3.org/2000/svg" xmlns:xlink="http://www.w3.org/1999/xlink" xmlns:figma="http://www.figma.com/figma/ns">
<title>Combined-Shape</title>
<desc>Created using Figma</desc>
<g id="Canvas" transform="translate(1681 842)" figma:type="canvas">
<g id="Combined-Shape" figma:type="vector">
<use xlink:href="#path0_fill" transform="translate(-1681 -842)"/>
</g>
</g>
<defs>
<path id="path0_fill" fill-rule="evenodd" d="M 15 30C 23.2843 30 30 23.2843 30 15C 30 6.71573 23.2843 0 15 0C 6.71572 0 0 6.71573 0 15C 0 23.2843 6.71572 30 15 30ZM 13.4124 5.95982L 16.9371 5.95982L 16.6346 17.2665L 13.7264 17.2665L 13.4124 5.95982ZM 12.9587 20.9957C 12.9587 20.6859 13.0169 20.394 13.1332 20.12C 13.2495 19.846 13.4104 19.6057 13.6159 19.3992C 13.8214 19.1927 14.0599 19.0299 14.3313 18.9107C 14.6028 18.7916 14.8936 18.732 15.2038 18.732C 15.5062 18.732 15.7912 18.7916 16.0588 18.9107C 16.3263 19.0299 16.5609 19.1927 16.7626 19.3992C 16.9642 19.6057 17.1232 19.846 17.2395 20.12C 17.3558 20.394 17.414 20.6859 17.414 20.9957C 17.414 21.3134 17.3558 21.6113 17.2395 21.8893C 17.1232 22.1673 16.9642 22.4096 16.7626 22.6161C 16.5609 22.8226 16.3263 22.9854 16.0588 23.1046C 15.7912 23.2237 15.5062 23.2833 15.2038 23.2833C 14.8936 23.2833 14.6028 23.2237 14.3313 23.1046C 14.0599 22.9854 13.8214 22.8226 13.6159 22.6161C 13.4104 22.4096 13.2495 22.1673 13.1332 21.8893C 13.0169 21.6113 12.9587 21.3134 12.9587 20.9957Z"/>
</defs>
</svg>
