<?xml version="1.0" encoding="UTF-8" standalone="no"?>
<svg width="12px" height="12px" viewBox="0 0 12 12" version="1.1" xmlns="http://www.w3.org/2000/svg" xmlns:xlink="http://www.w3.org/1999/xlink">
    <!-- Generator: sketchtool 39.1 (31720) - http://www.bohemiancoding.com/sketch -->
    <title>E202CFB9-1472-4643-B9BC-D9EA3C134D24</title>
    <desc>Created with sketchtool.</desc>
    <defs></defs>
    <g id="Symbols" stroke="none" stroke-width="1" fill="none" fill-rule="evenodd">
        <g id="Desktop/Contact" transform="translate(-457.000000, -192.000000)" fill="#CCCCCC">
            <g id="Group-6-Copy" transform="translate(30.000000, 159.000000)">
                <g id="metadata" transform="translate(427.000000, 30.000000)">
                    <g id="metadata-icon" transform="translate(0.000000, 3.000000)">
                        <path d="M5.94857143,0 C2.66853061,0 0,2.66853061 0,5.94857143 C0,9.22861224 2.66853061,11.8971429 5.94857143,11.8971429 C9.22861224,11.8971429 11.8971429,9.22861224 11.8971429,5.94857143 C11.8971429,2.66853061 9.22861224,0 5.94857143,0 L5.94857143,0 Z M5.94857143,10.6313878 C3.3664898,10.6313878 1.26563265,8.53077551 1.26563265,5.94857143 C1.26563265,3.36636735 3.3664898,1.2657551 5.94857143,1.2657551 C8.53065306,1.2657551 10.6315102,3.36636735 10.6315102,5.94857143 C10.6315102,8.53077551 8.53065306,10.6313878 5.94857143,10.6313878 L5.94857143,10.6313878 Z" id="Shape"></path>
                        <path d="M9.04873469,5.76489796 L6.37542857,5.76489796 L6.37542857,2.55061224 C6.37542857,2.28012245 6.15612245,2.06081633 5.88563265,2.06081633 C5.61514286,2.06081633 5.39583673,2.28012245 5.39583673,2.55061224 L5.39583673,6.25469388 C5.39583673,6.52518367 5.61514286,6.7444898 5.88563265,6.7444898 L9.04873469,6.7444898 C9.31922449,6.7444898 9.53853061,6.52518367 9.53853061,6.25469388 C9.53853061,5.98420408 9.31922449,5.76489796 9.04873469,5.76489796 L9.04873469,5.76489796 Z" id="Shape"></path>
                    </g>
                </g>
            </g>
        </g>
    </g>
</svg>