<?xml version="1.0" encoding="UTF-8" standalone="no"?>
<svg width="34px" height="34px" viewBox="0 0 34 34" version="1.1" xmlns="http://www.w3.org/2000/svg" xmlns:xlink="http://www.w3.org/1999/xlink">
    <!-- Generator: sketchtool 3.8.3 (29802) - http://www.bohemiancoding.com/sketch -->
    <title>905DA277-5D3C-492A-A31A-B53422E2BCA8</title>
    <desc>Created with sketchtool.</desc>
    <defs></defs>
    <g id="Special-relationships" stroke="none" stroke-width="1" fill="none" fill-rule="evenodd">
        <g id="Special-relationship-banner" transform="translate(-495.000000, -108.000000)">
            <g id="warning" transform="translate(465.000000, 84.000000)">
                <g id="warning-icon" transform="translate(30.000000, 24.000000)">
                    <circle id="Oval-33" fill="#005EA5" cx="17" cy="17" r="17"></circle>
                    <path d="M15.2006836,7.09472656 L19.1953125,7.09472656 L18.8525391,19.605957 L15.5566406,19.605957 L15.2006836,7.09472656 Z M14.6865234,23.7324219 C14.6865234,23.3896467 14.7524407,23.0666519 14.8842773,22.7634277 C15.0161139,22.4602036 15.1984852,22.1943371 15.4313965,21.9658203 C15.6643078,21.7373035 15.9345688,21.5571296 16.2421875,21.425293 C16.5498062,21.2934564 16.8793928,21.2275391 17.230957,21.2275391 C17.5737322,21.2275391 17.896727,21.2934564 18.1999512,21.425293 C18.5031753,21.5571296 18.7690418,21.7373035 18.9975586,21.9658203 C19.2260754,22.1943371 19.4062493,22.4602036 19.5380859,22.7634277 C19.6699225,23.0666519 19.7358398,23.3896467 19.7358398,23.7324219 C19.7358398,24.0839861 19.6699225,24.4135727 19.5380859,24.7211914 C19.4062493,25.0288101 19.2260754,25.2968739 18.9975586,25.5253906 C18.7690418,25.7539074 18.5031753,25.9340814 18.1999512,26.065918 C17.896727,26.1977546 17.5737322,26.2636719 17.230957,26.2636719 C16.8793928,26.2636719 16.5498062,26.1977546 16.2421875,26.065918 C15.9345688,25.9340814 15.6643078,25.7539074 15.4313965,25.5253906 C15.1984852,25.2968739 15.0161139,25.0288101 14.8842773,24.7211914 C14.7524407,24.4135727 14.6865234,24.0839861 14.6865234,23.7324219 L14.6865234,23.7324219 Z" id="!" fill="#FFFFFF"></path>
                </g>
            </g>
        </g>
    </g>
</svg>